<svg width="320" height="59" viewBox="0 0 320 59" fill="none" xmlns="http://www.w3.org/2000/svg">
<g clip-path="url(#clip0_72_499)">
<path d="M141.697 27.6361H136.026V12.47C136.026 11.9152 135.827 11.4528 135.445 11.0675C135.063 10.6822 134.589 10.4818 134.054 10.4818H130.37V27.6516H124.699V10.4818H119.013V27.6516H113.342V4.76367H134.604C136.561 4.76367 138.227 5.47266 139.603 6.87521C140.994 8.27777 141.697 9.94234 141.697 11.8998V27.6361Z" fill="#4B97CF"/>
<path d="M167.132 27.6361H150.975C149.187 27.6361 147.643 26.9426 146.374 25.5708C145.09 24.1683 144.448 22.5654 144.448 20.7621C144.448 18.9742 145.09 17.3867 146.374 15.9841C147.643 14.597 149.187 13.9034 150.975 13.9034H161.461V12.1926C161.461 11.7302 161.293 11.3449 160.942 11.0058C160.605 10.6667 160.223 10.4818 159.765 10.4818H145.855V4.76367H160.055C161.996 4.76367 163.663 5.47266 165.038 6.87521C166.429 8.27777 167.132 9.94234 167.132 11.8998V27.6361ZM161.461 21.9334V18.4964H151.816C151.357 18.4964 150.96 18.6659 150.624 19.0204C150.287 19.3595 150.104 19.7448 150.104 20.2072C150.104 20.6696 150.272 21.0703 150.624 21.4094C150.96 21.7485 151.373 21.9334 151.816 21.9334H161.461Z" fill="#4B97CF"/>
<path d="M192.538 10.4818L178.918 21.9334H191.407V27.6516H169.854V21.9334L183.473 10.4818H170.985V4.76367H192.538V10.4818Z" fill="#4B97CF"/>
<path d="M217.958 20.4846C217.958 22.4575 217.255 24.1375 215.864 25.54C214.473 26.9426 212.822 27.6361 210.881 27.6361H195.259V4.76367H210.866C212.807 4.76367 214.473 5.47266 215.849 6.87521C217.24 8.27777 217.943 9.94234 217.943 11.8998V20.4846H217.958ZM212.287 19.9144V12.47C212.287 11.9152 212.089 11.4528 211.706 11.0675C211.324 10.6822 210.85 10.4818 210.315 10.4818H200.93V21.9334H210.3C210.85 21.9334 211.309 21.7331 211.691 21.3478C212.089 20.947 212.287 20.4692 212.287 19.9144Z" fill="#4B97CF"/>
<path d="M243.363 20.4846C243.363 22.4575 242.66 24.1375 241.269 25.54C239.878 26.9426 238.227 27.6361 236.286 27.6361H227.771C225.845 27.6361 224.164 26.9426 222.758 25.54C221.367 24.1066 220.679 22.4266 220.679 20.4846V11.8998C220.679 9.94234 221.367 8.26236 222.758 6.87521C224.149 5.47266 225.83 4.76367 227.771 4.76367H236.286C238.227 4.76367 239.893 5.47266 241.269 6.87521C242.66 8.27777 243.363 9.94234 243.363 11.8998V20.4846ZM237.692 19.9144V12.47C237.692 11.9152 237.493 11.4528 237.111 11.0675C236.729 10.6822 236.255 10.4818 235.72 10.4818H228.337C227.787 10.4818 227.313 10.6822 226.931 11.0675C226.548 11.4528 226.35 11.9306 226.35 12.47V19.9144C226.35 20.4692 226.548 20.947 226.931 21.3323C227.313 21.7177 227.787 21.918 228.337 21.918H235.72C236.27 21.918 236.729 21.7177 237.111 21.3323C237.508 20.947 237.692 20.4692 237.692 19.9144Z" fill="#4B97CF"/>
<path d="M268.08 4.76367L259.856 27.6361H253.604L245.411 4.76367H251.632L256.723 21.2553L261.828 4.76367H268.08Z" fill="#4B97CF"/>
<path d="M292.783 20.4846C292.783 22.4575 292.08 24.1375 290.689 25.54C289.298 26.9426 287.647 27.6361 285.705 27.6361H277.191C275.265 27.6361 273.584 26.9426 272.178 25.54C270.786 24.1066 270.099 22.4266 270.099 20.4846V11.8998C270.099 9.94234 270.786 8.26236 272.178 6.87521C273.569 5.47266 275.25 4.76367 277.191 4.76367H285.705C287.647 4.76367 289.313 5.47266 290.689 6.87521C292.08 8.27777 292.783 9.94234 292.783 11.8998V20.4846ZM287.112 19.9144V12.47C287.112 11.9152 286.913 11.4528 286.531 11.0675C286.149 10.6822 285.675 10.4818 285.14 10.4818H277.757C277.207 10.4818 276.733 10.6822 276.351 11.0675C275.968 11.4528 275.77 11.9306 275.77 12.47V19.9144C275.77 20.4692 275.968 20.947 276.351 21.3323C276.733 21.7177 277.207 21.918 277.757 21.918H285.14C285.69 21.918 286.149 21.7177 286.531 21.3323C286.913 20.947 287.112 20.4692 287.112 19.9144Z" fill="#4B97CF"/>
<path d="M318.187 20.4846C318.187 22.4575 317.484 24.1375 316.093 25.54C314.702 26.9426 313.051 27.6361 311.11 27.6361H295.503V4.76367H311.11C313.051 4.76367 314.717 5.47266 316.093 6.87521C317.484 8.27777 318.187 9.94234 318.187 11.8998V20.4846ZM312.531 19.9144V12.47C312.531 11.9152 312.333 11.4528 311.951 11.0675C311.568 10.6822 311.095 10.4818 310.559 10.4818H301.189V21.9334H310.559C311.11 21.9334 311.568 21.7331 311.951 21.3478C312.333 20.947 312.531 20.4692 312.531 19.9144Z" fill="#4B97CF"/>
</g>
<g clip-path="url(#clip1_72_499)">
<path fill-rule="evenodd" clip-rule="evenodd" d="M25.8818 56.7837C25.8818 57.9139 26.7446 58.8322 27.8385 58.9646V54.6116C26.7446 54.7352 25.8818 55.6535 25.8818 56.7837Z" fill="#4B97CF"/>
<path fill-rule="evenodd" clip-rule="evenodd" d="M28.3809 54.6116V58.9646C29.4748 58.8322 30.3198 57.9139 30.3287 56.7925C30.3287 55.6623 29.4748 54.744 28.3809 54.6116Z" fill="#4B97CF"/>
<path fill-rule="evenodd" clip-rule="evenodd" d="M63.9837 55.1945C63.5834 54.8236 63.0498 54.5852 62.4628 54.5852C61.2354 54.5852 60.2482 55.5741 60.2393 56.7838C60.2393 57.2253 60.3727 57.6314 60.595 57.9758L62.0448 56.7838L63.9837 55.1945Z" fill="#4B97CF"/>
<path fill-rule="evenodd" clip-rule="evenodd" d="M64.3223 55.6006L62.8726 56.7838L60.9248 58.3819C61.325 58.7616 61.8587 58.9912 62.4546 58.9912C63.682 58.9912 64.6781 58.0023 64.6781 56.7838C64.6781 56.3511 64.5447 55.9449 64.3223 55.6006Z" fill="#4B97CF"/>
<path d="M48.0103 54.8236C48.0103 54.8147 48.0992 54.8059 48.0992 54.8059C46.7562 54.2143 45.351 53.5697 44.0613 52.8722C43.839 52.8016 43.6611 52.6603 43.5543 52.4925C43.4476 52.3248 43.4209 52.1217 43.4832 51.9362C43.6878 51.3888 43.9101 50.859 44.1591 50.3292C44.2392 50.1526 44.4082 50.029 44.6039 49.9849C44.7995 49.9407 45.0219 49.9672 45.2353 50.0732C46.6584 50.4529 48.0459 50.9032 49.4156 51.4153C50.0026 50.3822 50.7052 49.4286 51.5057 48.5898C50.6163 47.4684 49.7624 46.3029 48.962 45.1109C48.8019 44.9431 48.704 44.74 48.6951 44.537C48.6862 44.3427 48.7485 44.1485 48.8997 44.016C49.3355 43.6275 49.7891 43.2567 50.2516 42.9123C50.4117 42.7975 50.6074 42.7622 50.803 42.8152C50.9987 42.8682 51.1855 42.9918 51.3189 43.186C52.3773 44.1661 53.3823 45.1904 54.3429 46.2588C55.3479 45.6142 56.4241 45.1021 57.5536 44.7136C57.2957 43.3273 57.0823 41.9234 56.9311 40.5106C56.8688 40.2899 56.8777 40.0603 56.9577 39.8837C57.0378 39.6983 57.189 39.5658 57.3758 39.5129C57.945 39.3716 58.5142 39.248 59.0923 39.1509C59.288 39.1155 59.4837 39.1862 59.626 39.3186C59.7772 39.4511 59.875 39.6541 59.9106 39.8837C60.382 41.2258 60.8 42.5856 61.1469 43.9542C62.3209 43.8571 63.5216 43.8924 64.7312 44.0867C65.1492 42.7445 65.6206 41.4113 66.1542 40.0956C66.1987 39.8661 66.3143 39.6718 66.4744 39.5482C66.6345 39.4246 66.8302 39.3716 67.017 39.4157C67.5862 39.5482 68.1465 39.7071 68.6979 39.8925C68.8847 39.9544 69.027 40.1045 69.0893 40.2899C69.1604 40.4753 69.1604 40.7049 69.0715 40.9168C68.8669 42.3295 68.5912 43.7158 68.2621 45.0932C69.3828 45.57 70.4145 46.1705 71.3573 46.868C72.3623 45.8703 73.4029 44.899 74.488 43.9719C74.6392 43.7953 74.826 43.6717 75.0305 43.6363C75.2262 43.601 75.4219 43.6452 75.5731 43.7688C76.0178 44.1485 76.4358 44.5546 76.8449 44.9696C76.9783 45.1109 77.0317 45.3051 77.005 45.4994C76.9783 45.6937 76.8716 45.8967 76.6937 46.0468C75.8399 47.2035 74.9327 48.3249 73.9899 49.3933C74.737 50.3116 75.3685 51.3182 75.8755 52.3866C77.2452 51.9539 78.6415 51.5742 80.0557 51.2564C80.2691 51.1681 80.5004 51.1504 80.6872 51.2122C80.8739 51.274 81.034 51.3976 81.1052 51.5831C81.3186 52.1217 81.5054 52.6691 81.6744 53.2342C81.7278 53.4196 81.6833 53.6227 81.5677 53.7817C81.4521 53.9406 81.2653 54.073 81.034 54.126C79.7177 54.7706 78.3747 55.3533 77.0139 55.8743C77.0762 56.201 77.1295 56.5365 77.174 56.872H87.0464C87.0464 56.872 88.1938 56.7837 89.1632 56.0509C90.0526 55.3798 90.0437 53.8346 90.0437 53.8346V2.8255C90.0437 2.8255 89.688 1.76594 88.7986 0.971266C87.9447 0.211913 86.913 0 86.913 0H59.3325C59.3325 0 58.701 0.158934 57.8027 1.03307C56.4508 2.33104 45.8046 21.2531 45.0308 21.2707H45.0219C44.2392 21.2619 33.593 2.33987 32.25 1.03307C31.3517 0.158934 30.7202 0 30.7202 0H3.13072C3.13072 0 2.09901 0.211913 1.24518 0.971266C0.355767 1.76594 3.41953e-06 2.8255 3.41953e-06 2.8255V53.8346C3.41953e-06 53.8346 -0.00889073 55.3798 0.880518 56.0509C1.84997 56.7837 2.99731 56.872 2.99731 56.872H8.44939C8.39602 56.8367 8.35155 56.8102 8.31598 56.7661C8.17367 56.6248 8.09362 56.4394 8.12031 56.2451C8.18256 55.6712 8.27151 55.0973 8.38713 54.5233C8.4227 54.3291 8.55612 54.179 8.734 54.0819C8.91188 53.9936 9.13423 53.9671 9.36548 54.0201C10.833 54.0554 12.3005 54.1525 13.7414 54.3203C14.0616 53.1724 14.5152 52.0864 15.0844 51.0709C13.9459 50.1968 12.8342 49.2697 11.7669 48.2984C11.5712 48.1748 11.4289 47.9982 11.3666 47.8128C11.3044 47.6274 11.3222 47.4243 11.4378 47.2565C11.7669 46.7709 12.1138 46.3117 12.4784 45.8614C12.6029 45.7113 12.7897 45.6318 12.9943 45.6318C13.1899 45.6318 13.4034 45.7113 13.5813 45.8703C14.8442 46.5678 16.0716 47.3183 17.2634 48.1218C18.0817 47.2565 18.9978 46.4972 20.0028 45.8526C19.4069 44.5635 18.8644 43.2567 18.3752 41.9234C18.2596 41.7203 18.2151 41.4995 18.2507 41.3053C18.2862 41.111 18.393 40.9433 18.5709 40.8462C19.0867 40.5724 19.6115 40.3164 20.154 40.0868C20.3319 40.0073 20.5365 40.025 20.7143 40.1221C20.8922 40.2192 21.0434 40.387 21.1235 40.5989C21.915 41.7909 22.6444 43.0094 23.3114 44.2544C24.4321 43.8747 25.6061 43.6275 26.8157 43.5216C26.8957 42.1176 27.0291 40.7137 27.2248 39.3098C27.2159 39.0802 27.2782 38.8595 27.4027 38.7094C27.5272 38.5504 27.7051 38.4533 27.9008 38.4533C28.4878 38.4445 29.0659 38.4621 29.6529 38.5063C29.8486 38.5239 30.0175 38.6299 30.1332 38.7977C30.2488 38.9654 30.3022 39.1773 30.2755 39.4157C30.4178 40.8373 30.4889 42.2501 30.5067 43.6628C31.7074 43.8571 32.8637 44.1926 33.9487 44.6429C34.6781 43.4333 35.4607 42.2412 36.2879 41.0846C36.3857 40.8726 36.5458 40.7137 36.7326 40.6342C36.9105 40.5548 37.115 40.5459 37.2929 40.6342C37.8177 40.8991 38.3246 41.1905 38.8227 41.4907C38.9917 41.5967 39.0895 41.7733 39.1073 41.9675C39.1251 42.1618 39.0717 42.3825 38.9383 42.5768C38.3958 43.9101 37.791 45.208 37.1239 46.4707C38.0756 47.1859 38.9294 48.0159 39.6854 48.9253C40.9128 48.1748 42.1758 47.4773 43.4654 46.8239C43.6522 46.6826 43.8656 46.6119 44.0702 46.6296C44.2659 46.6384 44.4527 46.7267 44.5683 46.8857C44.9062 47.3625 45.2264 47.8481 45.5199 48.3514C45.6178 48.5192 45.6267 48.7222 45.5555 48.9077C45.4844 49.0931 45.3332 49.2608 45.1286 49.3668C44.0079 50.3116 42.8428 51.1946 41.651 52.0245C42.1402 53.0753 42.5137 54.179 42.745 55.3445C44.2036 55.2474 45.68 55.2032 47.1476 55.2297C47.3788 55.1944 47.4766 55.2297 47.6456 55.3357C47.6545 55.3445 47.6189 56.8809 47.6189 56.8809H47.9391C47.9391 56.8809 47.9391 56.1392 47.948 55.8919C47.9213 55.6271 48.0103 54.8236 48.0103 54.8236Z" fill="url(#paint0_linear_72_499)"/>
<path d="M78.4504 12.6076V7.47046H80.9325C81.1943 7.47046 81.4467 7.53311 81.6898 7.65841C81.9375 7.77906 82.1409 7.96005 82.2998 8.20136C82.4634 8.43803 82.5452 8.73039 82.5452 9.07843C82.5452 9.42648 82.4611 9.72812 82.2928 9.98335C82.1292 10.2339 81.9188 10.4265 81.6617 10.5611C81.4093 10.6957 81.1475 10.763 80.8764 10.763H78.9552V10.0599H80.638C80.8764 10.0599 81.0891 9.97639 81.2761 9.80933C81.4677 9.63762 81.5636 9.39399 81.5636 9.07843C81.5636 8.75359 81.4677 8.52156 81.2761 8.38234C81.0891 8.24312 80.8834 8.17351 80.6591 8.17351H79.3549V12.6076H78.4504ZM81.4654 10.22L82.7556 12.6076H81.7459L80.4908 10.22H81.4654ZM80.3506 15.6704C79.5746 15.6704 78.8477 15.5266 78.1699 15.2388C77.4921 14.9511 76.8961 14.552 76.3819 14.0416C75.8678 13.5311 75.4658 12.9394 75.1759 12.2665C74.8861 11.5936 74.7412 10.872 74.7412 10.1017C74.7412 9.33134 74.8861 8.60973 75.1759 7.93684C75.4658 7.26396 75.8678 6.67228 76.3819 6.16181C76.8961 5.65135 77.4921 5.25225 78.1699 4.96454C78.8477 4.67682 79.5746 4.53296 80.3506 4.53296C81.1265 4.53296 81.8534 4.67682 82.5312 4.96454C83.209 5.25225 83.805 5.65135 84.3192 6.16181C84.8333 6.67228 85.2354 7.26396 85.5252 7.93684C85.815 8.60973 85.9599 9.33134 85.9599 10.1017C85.9599 10.872 85.815 11.5936 85.5252 12.2665C85.2354 12.9394 84.8333 13.5311 84.3192 14.0416C83.805 14.552 83.209 14.9511 82.5312 15.2388C81.8534 15.5266 81.1265 15.6704 80.3506 15.6704ZM80.3506 14.6332C81.192 14.6332 81.9562 14.429 82.6434 14.0207C83.3352 13.6123 83.8868 13.067 84.2981 12.3849C84.7095 11.6981 84.9152 10.937 84.9152 10.1017C84.9152 9.26638 84.7095 8.50764 84.2981 7.82547C83.8868 7.13866 83.3352 6.59107 82.6434 6.18269C81.9562 5.77432 81.192 5.57013 80.3506 5.57013C79.5091 5.57013 78.7425 5.77432 78.0507 6.18269C77.3636 6.59107 76.8143 7.13866 76.403 7.82547C75.9916 8.50764 75.786 9.26638 75.786 10.1017C75.786 10.937 75.9916 11.6981 76.403 12.3849C76.8143 13.067 77.3636 13.6123 78.0507 14.0207C78.7425 14.429 79.5091 14.6332 80.3506 14.6332Z" fill="#232323"/>
</g>
<path opacity="0.8" d="M281.912 46.517C281.912 45.3867 281.632 44.5172 281.073 43.9086C280.514 43.3 279.769 42.9956 278.837 42.9956C278.316 42.9956 277.906 43.0143 277.608 43.0515C277.322 43.0888 277.092 43.1323 276.918 43.182V49.2931C277.129 49.467 277.434 49.6347 277.831 49.7962C278.229 49.9576 278.663 50.0384 279.135 50.0384C279.632 50.0384 280.055 49.9514 280.402 49.7775C280.763 49.5912 281.055 49.3428 281.278 49.0323C281.502 48.7093 281.663 48.3367 281.762 47.9144C281.862 47.4796 281.912 47.0139 281.912 46.517ZM283.719 46.517C283.719 47.2499 283.619 47.9268 283.421 48.5479C283.234 49.1689 282.955 49.703 282.582 50.1502C282.21 50.5973 281.75 50.9451 281.204 51.1935C280.669 51.442 280.055 51.5662 279.359 51.5662C278.8 51.5662 278.303 51.4916 277.869 51.3426C277.446 51.1935 277.129 51.0507 276.918 50.9141V54.7894H275.186V41.9523C275.595 41.8529 276.105 41.7473 276.713 41.6355C277.334 41.5113 278.049 41.4492 278.856 41.4492C279.601 41.4492 280.272 41.5672 280.868 41.8032C281.464 42.0392 281.974 42.3746 282.396 42.8093C282.818 43.2441 283.141 43.7782 283.365 44.4116C283.601 45.0327 283.719 45.7345 283.719 46.517Z" fill="white"/>
<path opacity="0.8" d="M273.397 41.6543V43.1076H270.249V51.3427H268.516V43.1076H265.367V41.6543H273.397Z" fill="white"/>
<path opacity="0.8" d="M263.58 51.3427H261.847V47.0575H257.375V51.3427H255.643V41.6543H257.375V45.6042H261.847V41.6543H263.58V51.3427Z" fill="white"/>
<path opacity="0.8" d="M244.695 46.5172C244.695 45.6601 244.82 44.9148 245.068 44.2814C245.316 43.6355 245.646 43.1014 246.055 42.6791C246.465 42.2567 246.937 41.94 247.471 41.7288C248.006 41.5177 248.552 41.4121 249.111 41.4121C250.415 41.4121 251.415 41.822 252.111 42.6418C252.806 43.4492 253.154 44.6851 253.154 46.3495C253.154 46.424 253.154 46.5234 253.154 46.6476C253.154 46.7594 253.148 46.865 253.135 46.9643H246.503C246.577 47.9704 246.869 48.7343 247.378 49.256C247.888 49.7777 248.682 50.0385 249.763 50.0385C250.372 50.0385 250.881 49.9888 251.291 49.8895C251.713 49.7777 252.03 49.6721 252.241 49.5727L252.483 51.026C252.272 51.1378 251.9 51.2558 251.365 51.38C250.844 51.5042 250.248 51.5663 249.577 51.5663C248.732 51.5663 247.999 51.4421 247.378 51.1937C246.77 50.9328 246.267 50.5788 245.869 50.1317C245.472 49.6845 245.174 49.1566 244.975 48.548C244.788 47.927 244.695 47.25 244.695 46.5172ZM251.347 45.567C251.359 44.7844 251.16 44.1447 250.751 43.6479C250.353 43.1386 249.8 42.884 249.092 42.884C248.695 42.884 248.341 42.9647 248.03 43.1262C247.732 43.2753 247.478 43.474 247.266 43.7224C247.055 43.9708 246.888 44.2565 246.763 44.5795C246.652 44.9024 246.577 45.2316 246.54 45.567H251.347Z" fill="white"/>
<path opacity="0.8" d="M241.793 49.7962H243.414V54.7894H241.7V51.3426H231.975V38.4309H233.782V49.7962H239.986V38.4309H241.793V49.7962Z" fill="white"/>
<path opacity="0.8" d="M224.576 41.6539V51.3424H222.899V43.9643C222.526 44.4363 222.116 44.989 221.669 45.6225C221.222 46.2559 220.775 46.9143 220.328 47.5974C219.88 48.2682 219.452 48.9327 219.042 49.591C218.632 50.2493 218.278 50.8331 217.98 51.3424H216.434V41.6539H218.11V48.6222C218.433 48.088 218.8 47.5043 219.21 46.8708C219.62 46.2249 220.042 45.5914 220.477 44.9704C220.924 44.3369 221.365 43.7345 221.799 43.1631C222.247 42.5793 222.663 42.0763 223.048 41.6539H224.576ZM220.514 40.0889C219.731 40.0889 219.092 39.8902 218.595 39.4927C218.11 39.0952 217.819 38.5425 217.719 37.8345L219.042 37.4805C219.141 37.8779 219.309 38.2009 219.545 38.4493C219.781 38.6977 220.104 38.8219 220.514 38.8219C220.924 38.8219 221.247 38.6977 221.483 38.4493C221.719 38.2009 221.886 37.8779 221.986 37.4805L223.29 37.8345C223.191 38.5425 222.899 39.0952 222.414 39.4927C221.93 39.8902 221.296 40.0889 220.514 40.0889Z" fill="white"/>
<path opacity="0.8" d="M213.458 41.6543V51.3427H211.782V43.9646C211.409 44.4366 210.999 44.9894 210.552 45.6228C210.105 46.2563 209.658 46.9146 209.21 47.5978C208.763 48.2685 208.335 48.933 207.925 49.5914C207.515 50.2497 207.161 50.8335 206.863 51.3427H205.316V41.6543H206.993V48.6225C207.316 48.0884 207.683 47.5046 208.093 46.8711C208.502 46.2252 208.925 45.5918 209.359 44.9707C209.807 44.3372 210.248 43.7348 210.682 43.1635C211.129 42.5797 211.546 42.0766 211.931 41.6543H213.458Z" fill="white"/>
<path opacity="0.8" d="M198.849 46.07C199.234 46.3432 199.65 46.691 200.097 47.1134C200.544 47.5232 200.979 47.9704 201.401 48.4548C201.836 48.9392 202.24 49.4361 202.612 49.9453C202.985 50.4422 203.302 50.908 203.562 51.3427H201.513C201.24 50.9204 200.917 50.4919 200.544 50.0571C200.184 49.61 199.805 49.1815 199.408 48.7716C199.01 48.3617 198.606 47.9828 198.196 47.635C197.787 47.2872 197.402 46.9953 197.041 46.7594V51.3427H195.309V41.6543H197.041V45.8091C197.339 45.5235 197.681 45.1943 198.066 44.8217C198.451 44.4366 198.836 44.0516 199.221 43.6665C199.619 43.269 199.985 42.8964 200.32 42.5486C200.656 42.1884 200.929 41.8903 201.14 41.6543H203.152C202.879 41.9524 202.556 42.294 202.184 42.679C201.823 43.0517 201.445 43.4367 201.047 43.8342C200.662 44.2317 200.277 44.6291 199.892 45.0266C199.507 45.4117 199.159 45.7595 198.849 46.07Z" fill="white"/>
<path opacity="0.8" d="M190.858 51.5663C190.076 51.5663 189.387 51.4421 188.79 51.1937C188.207 50.9453 187.71 50.5975 187.3 50.1503C186.902 49.7032 186.604 49.1753 186.406 48.5666C186.207 47.9456 186.107 47.2624 186.107 46.5172C186.107 45.7719 186.213 45.0887 186.424 44.4677C186.648 43.8466 186.958 43.3125 187.356 42.8654C187.753 42.4058 188.238 42.0518 188.809 41.8034C189.393 41.5425 190.039 41.4121 190.747 41.4121C191.181 41.4121 191.616 41.4494 192.051 41.5239C192.486 41.5984 192.902 41.7164 193.299 41.8779L192.908 43.3498C192.647 43.2256 192.343 43.1262 191.995 43.0517C191.66 42.9772 191.299 42.9399 190.914 42.9399C189.946 42.9399 189.2 43.2442 188.679 43.8528C188.169 44.4615 187.915 45.3496 187.915 46.5172C187.915 47.0388 187.971 47.5171 188.082 47.9518C188.207 48.3865 188.393 48.7592 188.641 49.0697C188.902 49.3802 189.231 49.6224 189.629 49.7963C190.026 49.9578 190.511 50.0385 191.082 50.0385C191.542 50.0385 191.958 49.9951 192.33 49.9081C192.703 49.8212 192.995 49.728 193.206 49.6286L193.448 51.0819C193.349 51.144 193.206 51.2061 193.02 51.2682C192.833 51.3179 192.622 51.3614 192.386 51.3986C192.15 51.4483 191.896 51.4856 191.622 51.5104C191.362 51.5477 191.107 51.5663 190.858 51.5663Z" fill="white"/>
<path opacity="0.8" d="M175.699 46.5172C175.699 45.6601 175.823 44.9148 176.072 44.2814C176.32 43.6355 176.649 43.1014 177.059 42.6791C177.469 42.2567 177.941 41.94 178.475 41.7288C179.009 41.5177 179.556 41.4121 180.115 41.4121C181.419 41.4121 182.419 41.822 183.115 42.6418C183.81 43.4492 184.158 44.6851 184.158 46.3495C184.158 46.424 184.158 46.5234 184.158 46.6476C184.158 46.7594 184.152 46.865 184.139 46.9643H177.506C177.581 47.9704 177.873 48.7343 178.382 49.256C178.891 49.7777 179.686 50.0385 180.767 50.0385C181.376 50.0385 181.885 49.9888 182.295 49.8895C182.717 49.7777 183.034 49.6721 183.245 49.5727L183.487 51.026C183.276 51.1378 182.903 51.2558 182.369 51.38C181.848 51.5042 181.251 51.5663 180.581 51.5663C179.736 51.5663 179.003 51.4421 178.382 51.1937C177.774 50.9328 177.27 50.5788 176.873 50.1317C176.476 49.6845 176.177 49.1566 175.979 48.548C175.792 47.927 175.699 47.25 175.699 46.5172ZM182.351 45.567C182.363 44.7844 182.164 44.1447 181.754 43.6479C181.357 43.1386 180.804 42.884 180.096 42.884C179.699 42.884 179.345 42.9647 179.034 43.1262C178.736 43.2753 178.482 43.474 178.27 43.7224C178.059 43.9708 177.892 44.2565 177.767 44.5795C177.656 44.9024 177.581 45.2316 177.544 45.567H182.351Z" fill="white"/>
<path opacity="0.8" d="M167.407 41.6543V44.5049C167.407 45.2378 167.593 45.7532 167.966 46.0514C168.338 46.337 168.847 46.4799 169.493 46.4799C169.965 46.4799 170.357 46.455 170.667 46.4053C170.99 46.3557 171.276 46.2998 171.524 46.2377V41.6543H173.257V51.3427H171.524V47.5791C171.425 47.604 171.294 47.635 171.133 47.6723C170.971 47.7096 170.785 47.7468 170.574 47.7841C170.375 47.8089 170.164 47.8338 169.94 47.8586C169.717 47.8835 169.5 47.8959 169.288 47.8959C168.754 47.8959 168.264 47.84 167.816 47.7282C167.382 47.6164 167.003 47.4301 166.68 47.1692C166.369 46.9084 166.121 46.5668 165.935 46.1445C165.761 45.7098 165.674 45.1695 165.674 44.5236V41.6543H167.407Z" fill="white"/>
<path opacity="0.8" d="M163.331 41.6543V51.3427H161.655V43.9646C161.282 44.4366 160.872 44.9894 160.425 45.6228C159.978 46.2563 159.531 46.9146 159.083 47.5978C158.636 48.2685 158.208 48.933 157.798 49.5914C157.388 50.2497 157.034 50.8335 156.736 51.3427H155.189V41.6543H156.866V48.6225C157.189 48.0884 157.556 47.5046 157.966 46.8711C158.375 46.2252 158.798 45.5918 159.233 44.9707C159.68 44.3372 160.121 43.7348 160.555 43.1635C161.003 42.5797 161.419 42.0766 161.804 41.6543H163.331Z" fill="white"/>
<path opacity="0.8" d="M152.21 51.3427H150.477V47.0575H146.005V51.3427H144.272V41.6543H146.005V45.6042H150.477V41.6543H152.21V51.3427Z" fill="white"/>
<path opacity="0.8" d="M140.551 51.3427C140.415 51.0695 140.247 50.7651 140.048 50.4298C139.85 50.0944 139.632 49.7528 139.396 49.405C139.16 49.0448 138.918 48.6908 138.67 48.343C138.421 47.9952 138.179 47.6661 137.943 47.3556C137.707 47.6661 137.465 48.0015 137.216 48.3617C136.968 48.7095 136.726 49.0635 136.49 49.4237C136.266 49.7715 136.055 50.113 135.856 50.4484C135.657 50.7838 135.49 51.0819 135.353 51.3427H133.564C133.999 50.4981 134.515 49.641 135.111 48.7716C135.72 47.8897 136.322 47.0512 136.918 46.2563L133.714 41.6543H135.67L137.98 45.0452L140.309 41.6543H142.154L139.024 46.1445C139.62 46.9519 140.228 47.8089 140.849 48.7157C141.483 49.61 142.017 50.4857 142.452 51.3427H140.551Z" fill="white"/>
<path opacity="0.8" d="M123.809 46.5172C123.809 45.6601 123.933 44.9148 124.181 44.2814C124.43 43.6355 124.759 43.1014 125.169 42.6791C125.579 42.2567 126.051 41.94 126.585 41.7288C127.119 41.5177 127.665 41.4121 128.224 41.4121C129.528 41.4121 130.528 41.822 131.224 42.6418C131.92 43.4492 132.267 44.6851 132.267 46.3495C132.267 46.424 132.267 46.5234 132.267 46.6476C132.267 46.7594 132.261 46.865 132.249 46.9643H125.616C125.69 47.9704 125.982 48.7343 126.492 49.256C127.001 49.7777 127.796 50.0385 128.876 50.0385C129.485 50.0385 129.994 49.9888 130.404 49.8895C130.826 49.7777 131.143 49.6721 131.354 49.5727L131.597 51.026C131.385 51.1378 131.013 51.2558 130.479 51.38C129.957 51.5042 129.361 51.5663 128.69 51.5663C127.845 51.5663 127.113 51.4421 126.492 51.1937C125.883 50.9328 125.38 50.5788 124.982 50.1317C124.585 49.6845 124.287 49.1566 124.088 48.548C123.902 47.927 123.809 47.25 123.809 46.5172ZM130.46 45.567C130.472 44.7844 130.274 44.1447 129.864 43.6479C129.466 43.1386 128.914 42.884 128.206 42.884C127.808 42.884 127.454 42.9647 127.144 43.1262C126.846 43.2753 126.591 43.474 126.38 43.7224C126.169 43.9708 126.001 44.2565 125.877 44.5795C125.765 44.9024 125.69 45.2316 125.653 45.567H130.46Z" fill="white"/>
<path opacity="0.8" d="M123.571 38.4309V39.996H119.51V51.3426H117.702V39.996H113.641V38.4309H123.571Z" fill="white"/>
<defs>
<linearGradient id="paint0_linear_72_499" x1="45.0245" y1="63.9237" x2="45.0245" y2="-0.0836354" gradientUnits="userSpaceOnUse">
<stop stop-color="#438EC9"/>
<stop offset="0.7091" stop-color="#73C6F0"/>
<stop offset="1" stop-color="#B7E2FA"/>
</linearGradient>
<clipPath id="clip0_72_499">
<rect width="206.658" height="22.8725" fill="white" transform="translate(113.342 4.76367)"/>
</clipPath>
<clipPath id="clip1_72_499">
<rect width="90.0526" height="59" fill="white"/>
</clipPath>
</defs>
</svg>
