<svg width="244" height="38" viewBox="0 0 244 38" fill="none" xmlns="http://www.w3.org/2000/svg">
<g clip-path="url(#clip0_66_1929)">
<path d="M91.2627 19.7314H87.6102V9.96342C87.6102 9.60605 87.4822 9.30825 87.2361 9.06007C86.9899 8.8119 86.6847 8.68285 86.3401 8.68285H83.9675V19.7413H80.3149V8.68285H76.6525V19.7413H73V5H86.6946C87.9547 5 89.0279 5.45663 89.9139 6.35998C90.8098 7.26332 91.2627 8.33542 91.2627 9.59612V19.7314Z" fill="#4B97CF"/>
<path d="M107.645 19.7314H97.239C96.0871 19.7314 95.0928 19.2847 94.2756 18.4012C93.4487 17.4979 93.0352 16.4655 93.0352 15.3041C93.0352 14.1525 93.4487 13.1301 94.2756 12.2267C95.0928 11.3333 96.0871 10.8866 97.239 10.8866H103.993V9.78473C103.993 9.48693 103.884 9.23876 103.658 9.02037C103.441 8.80198 103.195 8.68285 102.9 8.68285H93.9409V5H103.087C104.337 5 105.41 5.45663 106.297 6.35998C107.192 7.26332 107.645 8.33542 107.645 9.59612V19.7314ZM103.993 16.0585V13.8448H97.7805C97.4852 13.8448 97.2292 13.954 97.0126 14.1823C96.796 14.4007 96.6779 14.6489 96.6779 14.9467C96.6779 15.2445 96.7861 15.5026 97.0126 15.721C97.2292 15.9394 97.495 16.0585 97.7805 16.0585H103.993Z" fill="#4B97CF"/>
<path d="M124.008 8.68285L115.236 16.0585H123.279V19.7413H109.397V16.0585L118.169 8.68285H110.126V5H124.008V8.68285Z" fill="#4B97CF"/>
<path d="M140.38 15.1254C140.38 16.396 139.927 17.478 139.031 18.3814C138.135 19.2847 137.072 19.7314 135.821 19.7314H125.76V5H135.812C137.062 5 138.135 5.45663 139.021 6.35998C139.917 7.26332 140.37 8.33542 140.37 9.59612V15.1254H140.38ZM136.727 14.7581V9.96342C136.727 9.60605 136.599 9.30825 136.353 9.06007C136.107 8.8119 135.802 8.68285 135.457 8.68285H129.412V16.0585H135.447C135.802 16.0585 136.097 15.9294 136.343 15.6813C136.599 15.4232 136.727 15.1154 136.727 14.7581Z" fill="#4B97CF"/>
<path d="M156.743 15.1254C156.743 16.396 156.29 17.478 155.394 18.3814C154.498 19.2847 153.435 19.7314 152.185 19.7314H146.701C145.46 19.7314 144.377 19.2847 143.472 18.3814C142.576 17.4582 142.133 16.3762 142.133 15.1254V9.59612C142.133 8.33542 142.576 7.25339 143.472 6.35998C144.368 5.45663 145.451 5 146.701 5H152.185C153.435 5 154.508 5.45663 155.394 6.35998C156.29 7.26332 156.743 8.33542 156.743 9.59612V15.1254ZM153.09 14.7581V9.96342C153.09 9.60605 152.962 9.30825 152.716 9.06007C152.47 8.8119 152.165 8.68285 151.82 8.68285H147.065C146.711 8.68285 146.406 8.8119 146.159 9.06007C145.913 9.30825 145.785 9.61598 145.785 9.96342V14.7581C145.785 15.1154 145.913 15.4232 146.159 15.6713C146.406 15.9195 146.711 16.0486 147.065 16.0486H151.82C152.175 16.0486 152.47 15.9195 152.716 15.6713C152.972 15.4232 153.09 15.1154 153.09 14.7581Z" fill="#4B97CF"/>
<path d="M172.662 5L167.365 19.7314H163.339L158.062 5H162.068L165.347 15.6217L168.635 5H172.662Z" fill="#4B97CF"/>
<path d="M188.572 15.1254C188.572 16.396 188.119 17.478 187.223 18.3814C186.327 19.2847 185.264 19.7314 184.014 19.7314H178.53C177.29 19.7314 176.207 19.2847 175.301 18.3814C174.405 17.4582 173.962 16.3762 173.962 15.1254V9.59612C173.962 8.33542 174.405 7.25339 175.301 6.35998C176.197 5.45663 177.28 5 178.53 5H184.014C185.264 5 186.337 5.45663 187.223 6.35998C188.119 7.26332 188.572 8.33542 188.572 9.59612V15.1254ZM184.92 14.7581V9.96342C184.92 9.60605 184.792 9.30825 184.545 9.06007C184.299 8.8119 183.994 8.68285 183.65 8.68285H178.894C178.54 8.68285 178.235 8.8119 177.989 9.06007C177.742 9.30825 177.614 9.61598 177.614 9.96342V14.7581C177.614 15.1154 177.742 15.4232 177.989 15.6713C178.235 15.9195 178.54 16.0486 178.894 16.0486H183.65C184.004 16.0486 184.299 15.9195 184.545 15.6713C184.792 15.4232 184.92 15.1154 184.92 14.7581Z" fill="#4B97CF"/>
<path d="M204.934 15.1254C204.934 16.396 204.482 17.478 203.586 18.3814C202.69 19.2847 201.626 19.7314 200.376 19.7314H190.324V5H200.376C201.626 5 202.7 5.45663 203.586 6.35998C204.482 7.26332 204.934 8.33542 204.934 9.59612V15.1254ZM201.292 14.7581V9.96342C201.292 9.60605 201.164 9.30825 200.918 9.06007C200.671 8.8119 200.366 8.68285 200.022 8.68285H193.987V16.0585H200.022C200.376 16.0585 200.671 15.9294 200.918 15.6813C201.164 15.4232 201.292 15.1154 201.292 14.7581Z" fill="#4B97CF"/>
</g>
<g clip-path="url(#clip1_66_1929)">
<path fill-rule="evenodd" clip-rule="evenodd" d="M16.6699 36.5728C16.6699 37.3007 17.2256 37.8922 17.9302 37.9775V35.1738C17.2256 35.2534 16.6699 35.8449 16.6699 36.5728Z" fill="#4B97CF"/>
<path fill-rule="evenodd" clip-rule="evenodd" d="M18.2793 35.1738V37.9775C18.9839 37.8922 19.5281 37.3007 19.5338 36.5785C19.5338 35.8506 18.9839 35.2591 18.2793 35.1738Z" fill="#4B97CF"/>
<path fill-rule="evenodd" clip-rule="evenodd" d="M41.2105 35.5491C40.9527 35.3103 40.609 35.1567 40.2309 35.1567C39.4404 35.1567 38.8046 35.7937 38.7988 36.5728C38.7988 36.8571 38.8848 37.1187 39.028 37.3405L39.9617 36.5728L41.2105 35.5491Z" fill="#4B97CF"/>
<path fill-rule="evenodd" clip-rule="evenodd" d="M41.4285 35.8105L40.4948 36.5726L39.2402 37.6019C39.498 37.8465 39.8417 37.9943 40.2255 37.9943C41.016 37.9943 41.6576 37.3574 41.6576 36.5726C41.6576 36.2939 41.5717 36.0323 41.4285 35.8105Z" fill="#4B97CF"/>
<path d="M30.9219 35.3101C30.9219 35.3044 30.9792 35.2987 30.9792 35.2987C30.1142 34.9177 29.2091 34.5025 28.3785 34.0533C28.2353 34.0078 28.1207 33.9168 28.052 33.8087C27.9832 33.7007 27.966 33.5699 28.0061 33.4505C28.1379 33.0979 28.2811 32.7567 28.4415 32.4154C28.493 32.3017 28.6019 32.2221 28.7279 32.1937C28.8539 32.1652 28.9971 32.1823 29.1346 32.2505C30.0512 32.4951 30.9448 32.7851 31.827 33.1149C32.205 32.4496 32.6576 31.8354 33.1731 31.2951C32.6003 30.5729 32.0504 29.8222 31.5348 29.0545C31.4317 28.9464 31.3687 28.8156 31.363 28.6848C31.3572 28.5597 31.3973 28.4346 31.4947 28.3493C31.7754 28.0991 32.0676 27.8602 32.3654 27.6384C32.4685 27.5645 32.5946 27.5418 32.7206 27.5759C32.8466 27.61 32.9669 27.6896 33.0528 27.8147C33.7345 28.446 34.3818 29.1057 35.0005 29.7938C35.6478 29.3786 36.3409 29.0488 37.0684 28.7986C36.9023 27.9057 36.7648 27.0015 36.6675 26.0916C36.6274 25.9494 36.6331 25.8016 36.6846 25.6878C36.7362 25.5684 36.8336 25.4831 36.9539 25.449C37.3205 25.358 37.6871 25.2784 38.0595 25.2158C38.1855 25.1931 38.3115 25.2386 38.4032 25.3239C38.5005 25.4092 38.5636 25.54 38.5865 25.6878C38.8901 26.5522 39.1593 27.428 39.3827 28.3095C40.1389 28.2469 40.9122 28.2697 41.6913 28.3948C41.9605 27.5304 42.2641 26.6717 42.6078 25.8243C42.6364 25.6764 42.7109 25.5513 42.814 25.4717C42.9171 25.3921 43.0432 25.358 43.1635 25.3864C43.5301 25.4717 43.891 25.5741 44.2461 25.6935C44.3664 25.7333 44.4581 25.83 44.4982 25.9494C44.544 26.0688 44.544 26.2167 44.4867 26.3532C44.355 27.2631 44.1774 28.1559 43.9654 29.0431C44.6872 29.3502 45.3517 29.7369 45.9589 30.1862C46.6062 29.5435 47.2764 28.918 47.9753 28.3209C48.0727 28.2071 48.193 28.1275 48.3247 28.1048C48.4508 28.082 48.5768 28.1104 48.6742 28.1901C48.9606 28.4346 49.2298 28.6962 49.4933 28.9635C49.5793 29.0545 49.6136 29.1796 49.5964 29.3047C49.5793 29.4298 49.5105 29.5606 49.396 29.6573C48.846 30.4023 48.2617 31.1245 47.6545 31.8126C48.1357 32.4041 48.5424 33.0524 48.8689 33.7405C49.7511 33.4618 50.6505 33.2173 51.5613 33.0126C51.6988 32.9557 51.8477 32.9443 51.968 32.9841C52.0883 33.0239 52.1914 33.1036 52.2372 33.223C52.3747 33.5699 52.495 33.9225 52.6039 34.2864C52.6382 34.4059 52.6096 34.5367 52.5351 34.639C52.4606 34.7414 52.3403 34.8267 52.1914 34.8608C51.3436 35.276 50.4786 35.6513 49.6022 35.9868C49.6423 36.1972 49.6766 36.4133 49.7053 36.6295H56.0638C56.0638 36.6295 56.8028 36.5726 57.4272 36.1006C58 35.6684 57.9943 34.6732 57.9943 34.6732V1.81981C57.9943 1.81981 57.7651 1.13738 57.1923 0.625561C56.6424 0.136486 55.9779 0 55.9779 0H38.2141C38.2141 0 37.8074 0.102365 37.2288 0.66537C36.3581 1.50135 29.5012 13.6884 29.0029 13.6998H28.9971C28.493 13.6941 21.6362 1.50703 20.7712 0.66537C20.1926 0.102365 19.7859 0 19.7859 0H2.0164C2.0164 0 1.3519 0.136486 0.801977 0.625561C0.229138 1.13738 2.20241e-06 1.81981 2.20241e-06 1.81981V34.6732C2.20241e-06 34.6732 -0.00572623 35.6684 0.567113 36.1006C1.19151 36.5726 1.93047 36.6295 1.93047 36.6295H5.44198C5.40761 36.6067 5.37896 36.5896 5.35605 36.5612C5.2644 36.4702 5.21284 36.3508 5.23003 36.2257C5.27013 35.856 5.32741 35.4864 5.40188 35.1167C5.42479 34.9916 5.51072 34.8949 5.62529 34.8324C5.73985 34.7755 5.88306 34.7585 6.032 34.7926C6.97719 34.8153 7.92237 34.8779 8.85037 34.9859C9.05659 34.2466 9.34874 33.5471 9.71536 32.8931C8.98213 32.3301 8.26608 31.733 7.57867 31.1075C7.45264 31.0278 7.36099 30.9141 7.32089 30.7947C7.28079 30.6752 7.29225 30.5444 7.36672 30.4364C7.57867 30.1236 7.80208 29.8279 8.03694 29.5379C8.11714 29.4412 8.23743 29.39 8.36919 29.39C8.49521 29.39 8.63269 29.4412 8.74726 29.5436C9.56069 29.9928 10.3512 30.4762 11.1188 30.9937C11.6458 30.4364 12.2359 29.9473 12.8832 29.5322C12.4994 28.7019 12.1499 27.8602 11.8349 27.0015C11.7604 26.8707 11.7318 26.7285 11.7547 26.6034C11.7776 26.4783 11.8463 26.3702 11.9609 26.3077C12.2931 26.1314 12.6311 25.9665 12.9805 25.8186C13.0951 25.7674 13.2269 25.7788 13.3414 25.8414C13.456 25.9039 13.5534 26.012 13.6049 26.1485C14.1148 26.9162 14.5845 27.701 15.0141 28.5028C15.7359 28.2583 16.4921 28.0991 17.2711 28.0308C17.3227 27.1266 17.4086 26.2224 17.5346 25.3182C17.5289 25.1703 17.569 25.0281 17.6492 24.9315C17.7294 24.8291 17.844 24.7665 17.97 24.7665C18.3481 24.7609 18.7204 24.7722 19.0985 24.8007C19.2245 24.812 19.3333 24.8803 19.4078 24.9883C19.4823 25.0964 19.5166 25.2329 19.4995 25.3864C19.5911 26.302 19.6369 27.2119 19.6484 28.1218C20.4217 28.2469 21.1664 28.463 21.8653 28.7531C22.335 27.974 22.8391 27.2062 23.3719 26.4612C23.4349 26.3248 23.538 26.2224 23.6583 26.1712C23.7728 26.12 23.9046 26.1143 24.0192 26.1712C24.3571 26.3418 24.6837 26.5295 25.0044 26.7228C25.1133 26.7911 25.1763 26.9048 25.1878 27.0299C25.1992 27.155 25.1648 27.2972 25.0789 27.4223C24.7295 28.2811 24.34 29.117 23.9103 29.9303C24.5233 30.3909 25.0732 30.9255 25.5601 31.5112C26.3506 31.0278 27.1641 30.5786 27.9947 30.1577C28.115 30.0667 28.2524 30.0212 28.3842 30.0326C28.5102 30.0383 28.6305 30.0952 28.705 30.1975C28.9227 30.5046 29.1289 30.8174 29.3179 31.1416C29.3809 31.2496 29.3867 31.3804 29.3408 31.4999C29.295 31.6193 29.1976 31.7273 29.0659 31.7956C28.3441 32.4041 27.5937 32.9728 26.8261 33.5073C27.1411 34.1841 27.3817 34.8949 27.5307 35.6456C28.4701 35.5831 29.421 35.5546 30.3662 35.5717C30.5152 35.5489 30.5782 35.5717 30.687 35.6399C30.6927 35.6456 30.6698 36.6351 30.6698 36.6351H30.8761C30.8761 36.6351 30.8761 36.1574 30.8818 35.9982C30.8646 35.8276 30.9219 35.3101 30.9219 35.3101Z" fill="url(#paint0_linear_66_1929)"/>
<path d="M50.5276 8.12006V4.81138H52.1263C52.2949 4.81138 52.4575 4.85173 52.614 4.93243C52.7736 5.01014 52.9046 5.12671 53.0069 5.28213C53.1123 5.43456 53.165 5.62286 53.165 5.84703C53.165 6.07119 53.1108 6.26547 53.0024 6.42985C52.897 6.59125 52.7615 6.71529 52.596 6.80197C52.4334 6.88865 52.2648 6.93198 52.0902 6.93198H50.8528V6.47917H51.9366C52.0902 6.47917 52.2272 6.42537 52.3476 6.31777C52.471 6.20718 52.5327 6.05027 52.5327 5.84703C52.5327 5.63781 52.471 5.48836 52.3476 5.3987C52.2272 5.30903 52.0947 5.2642 51.9502 5.2642H51.1102V8.12006H50.5276ZM52.4695 6.58229L53.3005 8.12006H52.6501L51.8418 6.58229H52.4695ZM51.7515 10.0927C51.2517 10.0927 50.7835 10.0001 50.347 9.81474C49.9104 9.62943 49.5266 9.37239 49.1954 9.04362C48.8642 8.71484 48.6053 8.33376 48.4187 7.90038C48.232 7.46699 48.1387 7.00222 48.1387 6.50607C48.1387 6.00992 48.232 5.54515 48.4187 5.11177C48.6053 4.67838 48.8642 4.2973 49.1954 3.96853C49.5266 3.63975 49.9104 3.38271 50.347 3.1974C50.7835 3.01209 51.2517 2.91943 51.7515 2.91943C52.2512 2.91943 52.7194 3.01209 53.1559 3.1974C53.5925 3.38271 53.9763 3.63975 54.3075 3.96853C54.6387 4.2973 54.8976 4.67838 55.0843 5.11177C55.2709 5.54515 55.3643 6.00992 55.3643 6.50607C55.3643 7.00222 55.2709 7.46699 55.0843 7.90038C54.8976 8.33376 54.6387 8.71484 54.3075 9.04362C53.9763 9.37239 53.5925 9.62943 53.1559 9.81474C52.7194 10.0001 52.2512 10.0927 51.7515 10.0927ZM51.7515 9.4247C52.2934 9.4247 52.7856 9.29319 53.2282 9.03017C53.6738 8.76715 54.029 8.41596 54.294 7.97659C54.5589 7.53424 54.6914 7.04407 54.6914 6.50607C54.6914 5.96808 54.5589 5.4794 54.294 5.04003C54.029 4.59768 53.6738 4.24499 53.2282 3.98197C52.7856 3.71895 52.2934 3.58744 51.7515 3.58744C51.2095 3.58744 50.7158 3.71895 50.2702 3.98197C49.8277 4.24499 49.4739 4.59768 49.209 5.04003C48.944 5.4794 48.8116 5.96808 48.8116 6.50607C48.8116 7.04407 48.944 7.53424 49.209 7.97659C49.4739 8.41596 49.8277 8.76715 50.2702 9.03017C50.7158 9.29319 51.2095 9.4247 51.7515 9.4247Z" fill="white"/>
</g>
<path opacity="0.8" d="M79.588 26.684V27.692H76.972V35H75.808V27.692H73.192V26.684H79.588ZM79.7409 31.892C79.7409 31.34 79.8209 30.86 79.9809 30.452C80.1409 30.036 80.3529 29.692 80.6169 29.42C80.8809 29.148 81.1849 28.944 81.5289 28.808C81.8729 28.672 82.2249 28.604 82.5849 28.604C83.4249 28.604 84.0689 28.868 84.5169 29.396C84.9649 29.916 85.1889 30.712 85.1889 31.784C85.1889 31.832 85.1889 31.896 85.1889 31.976C85.1889 32.048 85.1849 32.116 85.1769 32.18H80.9049C80.9529 32.828 81.1409 33.32 81.4689 33.656C81.7969 33.992 82.3089 34.16 83.0049 34.16C83.3969 34.16 83.7249 34.128 83.9889 34.064C84.2609 33.992 84.4649 33.924 84.6009 33.86L84.7569 34.796C84.6209 34.868 84.3809 34.944 84.0369 35.024C83.7009 35.104 83.3169 35.144 82.8849 35.144C82.3409 35.144 81.8689 35.064 81.4689 34.904C81.0769 34.736 80.7529 34.508 80.4969 34.22C80.2409 33.932 80.0489 33.592 79.9209 33.2C79.8009 32.8 79.7409 32.364 79.7409 31.892ZM84.0249 31.28C84.0329 30.776 83.9049 30.364 83.6409 30.044C83.3849 29.716 83.0289 29.552 82.5729 29.552C82.3169 29.552 82.0889 29.604 81.8889 29.708C81.6969 29.804 81.5329 29.932 81.3969 30.092C81.2609 30.252 81.1529 30.436 81.0729 30.644C81.0009 30.852 80.9529 31.064 80.9289 31.28H84.0249ZM90.524 35C90.436 34.824 90.328 34.628 90.2 34.412C90.072 34.196 89.932 33.976 89.78 33.752C89.628 33.52 89.472 33.292 89.312 33.068C89.152 32.844 88.996 32.632 88.844 32.432C88.692 32.632 88.536 32.848 88.376 33.08C88.216 33.304 88.06 33.532 87.908 33.764C87.764 33.988 87.628 34.208 87.5 34.424C87.372 34.64 87.264 34.832 87.176 35H86.024C86.304 34.456 86.636 33.904 87.02 33.344C87.412 32.776 87.8 32.236 88.184 31.724L86.12 28.76H87.38L88.868 30.944L90.368 28.76H91.556L89.54 31.652C89.924 32.172 90.316 32.724 90.716 33.308C91.124 33.884 91.468 34.448 91.748 35H90.524ZM98.0329 35H96.9169V32.24H94.0369V35H92.9209V28.76H94.0369V31.304H96.9169V28.76H98.0329V35ZM105.196 28.76V35H104.116V30.248C103.876 30.552 103.612 30.908 103.324 31.316C103.036 31.724 102.748 32.148 102.46 32.588C102.172 33.02 101.896 33.448 101.632 33.872C101.368 34.296 101.14 34.672 100.948 35H99.9522V28.76H101.032V33.248C101.24 32.904 101.476 32.528 101.74 32.12C102.004 31.704 102.276 31.296 102.556 30.896C102.844 30.488 103.128 30.1 103.408 29.732C103.696 29.356 103.964 29.032 104.212 28.76H105.196ZM107.82 28.76V30.596C107.82 31.068 107.94 31.4 108.18 31.592C108.42 31.776 108.748 31.868 109.164 31.868C109.468 31.868 109.72 31.852 109.92 31.82C110.128 31.788 110.312 31.752 110.472 31.712V28.76H111.588V35H110.472V32.576C110.408 32.592 110.324 32.612 110.22 32.636C110.116 32.66 109.996 32.684 109.86 32.708C109.732 32.724 109.596 32.74 109.452 32.756C109.308 32.772 109.168 32.78 109.032 32.78C108.688 32.78 108.372 32.744 108.084 32.672C107.804 32.6 107.56 32.48 107.352 32.312C107.152 32.144 106.992 31.924 106.872 31.652C106.76 31.372 106.704 31.024 106.704 30.608V28.76H107.82ZM113.163 31.892C113.163 31.34 113.243 30.86 113.403 30.452C113.563 30.036 113.775 29.692 114.039 29.42C114.303 29.148 114.607 28.944 114.951 28.808C115.295 28.672 115.647 28.604 116.007 28.604C116.847 28.604 117.491 28.868 117.939 29.396C118.387 29.916 118.611 30.712 118.611 31.784C118.611 31.832 118.611 31.896 118.611 31.976C118.611 32.048 118.607 32.116 118.599 32.18H114.327C114.375 32.828 114.563 33.32 114.891 33.656C115.219 33.992 115.731 34.16 116.427 34.16C116.819 34.16 117.147 34.128 117.411 34.064C117.683 33.992 117.887 33.924 118.023 33.86L118.179 34.796C118.043 34.868 117.803 34.944 117.459 35.024C117.123 35.104 116.739 35.144 116.307 35.144C115.763 35.144 115.291 35.064 114.891 34.904C114.499 34.736 114.175 34.508 113.919 34.22C113.663 33.932 113.471 33.592 113.343 33.2C113.223 32.8 113.163 32.364 113.163 31.892ZM117.447 31.28C117.455 30.776 117.327 30.364 117.063 30.044C116.807 29.716 116.451 29.552 115.995 29.552C115.739 29.552 115.511 29.604 115.311 29.708C115.119 29.804 114.955 29.932 114.819 30.092C114.683 30.252 114.575 30.436 114.495 30.644C114.423 30.852 114.375 31.064 114.351 31.28H117.447ZM122.926 35.144C122.422 35.144 121.978 35.064 121.594 34.904C121.218 34.744 120.898 34.52 120.634 34.232C120.378 33.944 120.186 33.604 120.058 33.212C119.93 32.812 119.866 32.372 119.866 31.892C119.866 31.412 119.934 30.972 120.07 30.572C120.214 30.172 120.414 29.828 120.67 29.54C120.926 29.244 121.238 29.016 121.606 28.856C121.982 28.688 122.398 28.604 122.854 28.604C123.134 28.604 123.414 28.628 123.694 28.676C123.974 28.724 124.242 28.8 124.498 28.904L124.246 29.852C124.078 29.772 123.882 29.708 123.658 29.66C123.442 29.612 123.21 29.588 122.962 29.588C122.338 29.588 121.858 29.784 121.522 30.176C121.194 30.568 121.03 31.14 121.03 31.892C121.03 32.228 121.066 32.536 121.138 32.816C121.218 33.096 121.338 33.336 121.498 33.536C121.666 33.736 121.878 33.892 122.134 34.004C122.39 34.108 122.702 34.16 123.07 34.16C123.366 34.16 123.634 34.132 123.874 34.076C124.114 34.02 124.302 33.96 124.438 33.896L124.594 34.832C124.53 34.872 124.438 34.912 124.318 34.952C124.198 34.984 124.062 35.012 123.91 35.036C123.758 35.068 123.594 35.092 123.418 35.108C123.25 35.132 123.086 35.144 122.926 35.144ZM128.072 31.604C128.32 31.78 128.588 32.004 128.876 32.276C129.164 32.54 129.444 32.828 129.716 33.14C129.996 33.452 130.256 33.772 130.496 34.1C130.736 34.42 130.94 34.72 131.108 35H129.788C129.612 34.728 129.404 34.452 129.164 34.172C128.932 33.884 128.688 33.608 128.432 33.344C128.176 33.08 127.916 32.836 127.652 32.612C127.388 32.388 127.14 32.2 126.908 32.048V35H125.792V28.76H126.908V31.436C127.1 31.252 127.32 31.04 127.568 30.8C127.816 30.552 128.064 30.304 128.312 30.056C128.568 29.8 128.804 29.56 129.02 29.336C129.236 29.104 129.412 28.912 129.548 28.76H130.844C130.668 28.952 130.46 29.172 130.22 29.42C129.988 29.66 129.744 29.908 129.488 30.164C129.24 30.42 128.992 30.676 128.744 30.932C128.496 31.18 128.272 31.404 128.072 31.604ZM137.481 28.76V35H136.401V30.248C136.161 30.552 135.897 30.908 135.609 31.316C135.321 31.724 135.033 32.148 134.745 32.588C134.457 33.02 134.181 33.448 133.917 33.872C133.653 34.296 133.425 34.672 133.233 35H132.237V28.76H133.317V33.248C133.525 32.904 133.761 32.528 134.025 32.12C134.289 31.704 134.561 31.296 134.841 30.896C135.129 30.488 135.413 30.1 135.693 29.732C135.981 29.356 136.249 29.032 136.497 28.76H137.481ZM144.642 28.76V35H143.562V30.248C143.322 30.552 143.058 30.908 142.77 31.316C142.482 31.724 142.194 32.148 141.906 32.588C141.618 33.02 141.342 33.448 141.078 33.872C140.814 34.296 140.586 34.672 140.394 35H139.398V28.76H140.478V33.248C140.686 32.904 140.922 32.528 141.186 32.12C141.45 31.704 141.722 31.296 142.002 30.896C142.29 30.488 142.574 30.1 142.854 29.732C143.142 29.356 143.41 29.032 143.658 28.76H144.642ZM142.026 27.752C141.522 27.752 141.11 27.624 140.79 27.368C140.478 27.112 140.29 26.756 140.226 26.3L141.078 26.072C141.142 26.328 141.25 26.536 141.402 26.696C141.554 26.856 141.762 26.936 142.026 26.936C142.29 26.936 142.498 26.856 142.65 26.696C142.802 26.536 142.91 26.328 142.974 26.072L143.814 26.3C143.75 26.756 143.562 27.112 143.25 27.368C142.938 27.624 142.53 27.752 142.026 27.752ZM155.731 34.004H156.775V37.22H155.671V35H149.407V26.684H150.571V34.004H154.567V26.684H155.731V34.004ZM157.6 31.892C157.6 31.34 157.68 30.86 157.84 30.452C158 30.036 158.212 29.692 158.476 29.42C158.74 29.148 159.044 28.944 159.388 28.808C159.732 28.672 160.084 28.604 160.444 28.604C161.284 28.604 161.928 28.868 162.376 29.396C162.824 29.916 163.048 30.712 163.048 31.784C163.048 31.832 163.048 31.896 163.048 31.976C163.048 32.048 163.044 32.116 163.036 32.18H158.764C158.812 32.828 159 33.32 159.328 33.656C159.656 33.992 160.168 34.16 160.864 34.16C161.256 34.16 161.584 34.128 161.848 34.064C162.12 33.992 162.324 33.924 162.46 33.86L162.616 34.796C162.48 34.868 162.24 34.944 161.896 35.024C161.56 35.104 161.176 35.144 160.744 35.144C160.2 35.144 159.728 35.064 159.328 34.904C158.936 34.736 158.612 34.508 158.356 34.22C158.1 33.932 157.908 33.592 157.78 33.2C157.66 32.8 157.6 32.364 157.6 31.892ZM161.884 31.28C161.892 30.776 161.764 30.364 161.5 30.044C161.244 29.716 160.888 29.552 160.432 29.552C160.176 29.552 159.948 29.604 159.748 29.708C159.556 29.804 159.392 29.932 159.256 30.092C159.12 30.252 159.012 30.436 158.932 30.644C158.86 30.852 158.812 31.064 158.788 31.28H161.884ZM169.763 35H168.647V32.24H165.767V35H164.651V28.76H165.767V31.304H168.647V28.76H169.763V35ZM176.087 28.76V29.696H174.059V35H172.943V29.696H170.915V28.76H176.087ZM181.569 31.892C181.569 31.164 181.389 30.604 181.029 30.212C180.669 29.82 180.189 29.624 179.589 29.624C179.253 29.624 178.989 29.636 178.797 29.66C178.613 29.684 178.465 29.712 178.353 29.744V33.68C178.489 33.792 178.685 33.9 178.941 34.004C179.197 34.108 179.477 34.16 179.781 34.16C180.101 34.16 180.373 34.104 180.597 33.992C180.829 33.872 181.017 33.712 181.161 33.512C181.305 33.304 181.409 33.064 181.473 32.792C181.537 32.512 181.569 32.212 181.569 31.892ZM182.733 31.892C182.733 32.364 182.669 32.8 182.541 33.2C182.421 33.6 182.241 33.944 182.001 34.232C181.761 34.52 181.465 34.744 181.113 34.904C180.769 35.064 180.373 35.144 179.925 35.144C179.565 35.144 179.245 35.096 178.965 35C178.693 34.904 178.489 34.812 178.353 34.724V37.22H177.237V28.952C177.501 28.888 177.829 28.82 178.221 28.748C178.621 28.668 179.081 28.628 179.601 28.628C180.081 28.628 180.513 28.704 180.897 28.856C181.281 29.008 181.609 29.224 181.881 29.504C182.153 29.784 182.361 30.128 182.505 30.536C182.657 30.936 182.733 31.388 182.733 31.892Z" fill="#2A2A2A"/>
<defs>
<linearGradient id="paint0_linear_66_1929" x1="28.9989" y1="41.1712" x2="28.9989" y2="-0.0538669" gradientUnits="userSpaceOnUse">
<stop stop-color="#438EC9"/>
<stop offset="0.7091" stop-color="#73C6F0"/>
<stop offset="1" stop-color="#B7E2FA"/>
</linearGradient>
<clipPath id="clip0_66_1929">
<rect width="171" height="14.7314" fill="white" transform="translate(73 5)"/>
</clipPath>
<clipPath id="clip1_66_1929">
<rect width="58" height="38" fill="white"/>
</clipPath>
</defs>
</svg>
