<svg width="1260" height="673" viewBox="0 0 1260 673" fill="none" xmlns="http://www.w3.org/2000/svg">
<path opacity="0.2" fill-rule="evenodd" clip-rule="evenodd" d="M503.304 0C496.671 27.0369 489.579 55.8511 484.96 74.3554C455.973 83.5288 427.935 95.4724 401.237 110.021L284.839 40.1682C270.285 31.5211 251.768 33.7567 239.772 45.7164L135.442 150.047C129.624 155.864 125.918 163.46 124.913 171.626C123.907 179.791 125.661 188.059 129.893 195.114L201.873 315.331C190.282 338.201 180.559 361.971 172.801 386.409L28.367 422.037C20.384 424.027 13.2957 428.629 8.22967 435.111C3.16361 441.593 0.410802 449.584 0.40918 457.811V605.371C0.40918 622.304 11.9386 637.074 28.3645 641.145L157.93 673H526.243C483.144 641.164 455.193 589.997 455.193 532.302C455.193 435.758 533.457 357.494 630 357.494C726.544 357.494 804.807 435.758 804.807 532.302C804.807 589.997 776.857 641.164 733.757 673H1102.1L1231.63 641.145C1239.62 639.155 1246.7 634.554 1251.77 628.071C1256.84 621.589 1259.59 613.598 1259.59 605.371V457.811C1259.59 449.584 1256.84 441.594 1251.77 435.112C1246.71 428.629 1239.62 424.027 1231.64 422.037L1087.2 386.517C1078.51 359.124 1067.35 332.573 1053.88 307.188C1075.56 271.09 1121.14 195.114 1121.14 195.114C1125.37 188.059 1127.12 179.791 1126.12 171.626C1125.11 163.46 1121.41 155.864 1115.59 150.047L1011.26 45.7164C1005.45 39.8824 997.854 36.165 989.684 35.1591C981.513 34.1532 973.241 35.917 966.192 40.1682L853.935 107.429C828.695 94.0695 802.302 83.0127 775.076 74.3923L756.781 0H503.304Z" fill="#154B72"/>
</svg>
